<svg width="16" height="16" viewBox="0 0 16 16" fill="none" xmlns="http://www.w3.org/2000/svg">
<path d="M14.2506 7.99994C14.2506 8.19886 14.1716 8.38962 14.0309 8.53027C13.8903 8.67093 13.6995 8.74994 13.5006 8.74994H4.31309L7.53309 11.9693C7.67399 12.1102 7.75314 12.3013 7.75314 12.5006C7.75314 12.6998 7.67399 12.8909 7.53309 13.0318C7.39219 13.1727 7.2011 13.2519 7.00184 13.2519C6.80258 13.2519 6.61149 13.1727 6.47059 13.0318L1.97059 8.53182C1.90067 8.46214 1.84519 8.37935 1.80734 8.28818C1.76949 8.19702 1.75 8.09928 1.75 8.00057C1.75 7.90186 1.76949 7.80412 1.80734 7.71295C1.84519 7.62179 1.90067 7.539 1.97059 7.46932L6.47059 2.96932C6.54036 2.89955 6.62318 2.84421 6.71433 2.80646C6.80548 2.7687 6.90318 2.74927 7.00184 2.74927C7.1005 2.74927 7.1982 2.7687 7.28935 2.80646C7.3805 2.84421 7.46333 2.89955 7.53309 2.96932C7.60286 3.03908 7.6582 3.12191 7.69595 3.21306C7.73371 3.30421 7.75314 3.40191 7.75314 3.50057C7.75314 3.59923 7.73371 3.69693 7.69595 3.78808C7.6582 3.87923 7.60286 3.96205 7.53309 4.03182L4.31309 7.24994H13.5006C13.6995 7.24994 13.8903 7.32896 14.0309 7.46961C14.1716 7.61027 14.2506 7.80103 14.2506 7.99994Z" fill="#1A1A1A"/>
</svg>
