<svg width="17" height="17" viewBox="0 0 17 17" fill="none" xmlns="http://www.w3.org/2000/svg">
<path d="M6.7079 0.121874C5.53993 -0.256218 4.27024 0.269699 3.7117 1.36295L3.04022 2.67726C2.96043 2.83342 2.83342 2.96043 2.67726 3.04022L1.36295 3.7117C0.269699 4.27024 -0.256218 5.53993 0.121874 6.7079L0.576424 8.11207C0.630432 8.2789 0.630432 8.45856 0.576424 8.6254L0.121874 10.0296C-0.256218 11.1976 0.269699 12.4672 1.36295 13.0258L2.67726 13.6972C2.83342 13.7771 2.96043 13.9041 3.04022 14.0602L3.7117 15.3746C4.27024 16.4678 5.53993 16.9937 6.7079 16.6156L8.11207 16.1611C8.2789 16.1071 8.45856 16.1071 8.6254 16.1611L10.0296 16.6156C11.1976 16.9937 12.4672 16.4678 13.0258 15.3746L13.6972 14.0602C13.7771 13.9041 13.9041 13.7771 14.0602 13.6972L15.3746 13.0258C16.4678 12.4672 16.9937 11.1976 16.6156 10.0296L16.1611 8.6254C16.1071 8.45856 16.1071 8.2789 16.1611 8.11207L16.6156 6.7079C16.9937 5.53993 16.4678 4.27024 15.3746 3.7117L14.0602 3.04022C13.9041 2.96043 13.7771 2.83342 13.6972 2.67726L13.0258 1.36295C12.4672 0.269699 11.1976 -0.256218 10.0296 0.121874L8.6254 0.576424C8.45856 0.630424 8.2789 0.630432 8.11207 0.576424L6.7079 0.121874ZM4.00187 8.16648L5.18039 6.9879L7.5374 9.34498L12.2515 4.63094L13.43 5.80945L7.5374 11.702L4.00187 8.16648Z" fill="#0045F3"/>
</svg>
